<svg xmlns="http://www.w3.org/2000/svg" xmlns:xlink="http://www.w3.org/1999/xlink" style="margin: auto; background: #00000000; display: block;" width="271px" height="271px" viewBox="0 0 100 100" preserveAspectRatio="xMidYMid">
<g transform="translate(50,50) scale(0.53) translate(-50,-50)"><g>
  <animateTransform attributeName="transform" type="rotate" values="0 50 50;90 50 50" times="0;1" dur="0.6097560975609756s" repeatCount="indefinite"></animateTransform><path d="M44.6,20.6c2.6,4.4,7,7.1,11.7,7.7c1.9-4.4,1.7-9.5-0.8-14c-2.6-4.4-7-7.1-11.7-7.7C41.9,11,42,16.2,44.6,20.6z" fill="#446f3f" transform="rotate(0 50 50)">
  <animate attributeName="fill" repeatCount="indefinite" dur="0.6097560975609756s" keyTimes="0;0.33;0.66;1" values="#446f3f;#14a651;#55f335;#27ae19" begin="0s"></animate>
</path><path d="M44.6,20.6c2.6,4.4,7,7.1,11.7,7.7c1.9-4.4,1.7-9.5-0.8-14c-2.6-4.4-7-7.1-11.7-7.7C41.9,11,42,16.2,44.6,20.6z" fill="#14a651" transform="rotate(30 50 50)">
  <animate attributeName="fill" repeatCount="indefinite" dur="0.6097560975609756s" keyTimes="0;0.33;0.66;1" values="#14a651;#55f335;#27ae19;#446f3f" begin="0s"></animate>
</path><path d="M44.6,20.6c2.6,4.4,7,7.1,11.7,7.7c1.9-4.4,1.7-9.5-0.8-14c-2.6-4.4-7-7.1-11.7-7.7C41.9,11,42,16.2,44.6,20.6z" fill="#55f335" transform="rotate(60 50 50)">
  <animate attributeName="fill" repeatCount="indefinite" dur="0.6097560975609756s" keyTimes="0;0.33;0.66;1" values="#55f335;#27ae19;#446f3f;#14a651" begin="0s"></animate>
</path><path d="M44.6,20.6c2.6,4.4,7,7.1,11.7,7.7c1.9-4.4,1.7-9.5-0.8-14c-2.6-4.4-7-7.1-11.7-7.7C41.9,11,42,16.2,44.6,20.6z" fill="#27ae19" transform="rotate(90 50 50)">
  <animate attributeName="fill" repeatCount="indefinite" dur="0.6097560975609756s" keyTimes="0;0.33;0.66;1" values="#27ae19;#446f3f;#14a651;#55f335" begin="0s"></animate>
</path><path d="M44.6,20.6c2.6,4.4,7,7.1,11.7,7.7c1.9-4.4,1.7-9.5-0.8-14c-2.6-4.4-7-7.1-11.7-7.7C41.9,11,42,16.2,44.6,20.6z" fill="#446f3f" transform="rotate(120 50 50)">
  <animate attributeName="fill" repeatCount="indefinite" dur="0.6097560975609756s" keyTimes="0;0.33;0.66;1" values="#446f3f;#14a651;#55f335;#27ae19" begin="0s"></animate>
</path><path d="M44.6,20.6c2.6,4.4,7,7.1,11.7,7.7c1.9-4.4,1.7-9.5-0.8-14c-2.6-4.4-7-7.1-11.7-7.7C41.9,11,42,16.2,44.6,20.6z" fill="#14a651" transform="rotate(150 50 50)">
  <animate attributeName="fill" repeatCount="indefinite" dur="0.6097560975609756s" keyTimes="0;0.33;0.66;1" values="#14a651;#55f335;#27ae19;#446f3f" begin="0s"></animate>
</path><path d="M44.6,20.6c2.6,4.4,7,7.1,11.7,7.7c1.9-4.4,1.7-9.5-0.8-14c-2.6-4.4-7-7.1-11.7-7.7C41.9,11,42,16.2,44.6,20.6z" fill="#55f335" transform="rotate(180 50 50)">
  <animate attributeName="fill" repeatCount="indefinite" dur="0.6097560975609756s" keyTimes="0;0.33;0.66;1" values="#55f335;#27ae19;#446f3f;#14a651" begin="0s"></animate>
</path><path d="M44.6,20.6c2.6,4.4,7,7.1,11.7,7.7c1.9-4.4,1.7-9.5-0.8-14c-2.6-4.4-7-7.1-11.7-7.7C41.9,11,42,16.2,44.6,20.6z" fill="#27ae19" transform="rotate(210 50 50)">
  <animate attributeName="fill" repeatCount="indefinite" dur="0.6097560975609756s" keyTimes="0;0.33;0.66;1" values="#27ae19;#446f3f;#14a651;#55f335" begin="0s"></animate>
</path><path d="M44.6,20.6c2.6,4.4,7,7.1,11.7,7.7c1.9-4.4,1.7-9.5-0.8-14c-2.6-4.4-7-7.1-11.7-7.7C41.9,11,42,16.2,44.6,20.6z" fill="#446f3f" transform="rotate(240 50 50)">
  <animate attributeName="fill" repeatCount="indefinite" dur="0.6097560975609756s" keyTimes="0;0.33;0.66;1" values="#446f3f;#14a651;#55f335;#27ae19" begin="0s"></animate>
</path><path d="M44.6,20.6c2.6,4.4,7,7.1,11.7,7.7c1.9-4.4,1.7-9.5-0.8-14c-2.6-4.4-7-7.1-11.7-7.7C41.9,11,42,16.2,44.6,20.6z" fill="#14a651" transform="rotate(270 50 50)">
  <animate attributeName="fill" repeatCount="indefinite" dur="0.6097560975609756s" keyTimes="0;0.33;0.66;1" values="#14a651;#55f335;#27ae19;#446f3f" begin="0s"></animate>
</path><path d="M44.6,20.6c2.6,4.4,7,7.1,11.7,7.7c1.9-4.4,1.7-9.5-0.8-14c-2.6-4.4-7-7.1-11.7-7.7C41.9,11,42,16.2,44.6,20.6z" fill="#55f335" transform="rotate(300 50 50)">
  <animate attributeName="fill" repeatCount="indefinite" dur="0.6097560975609756s" keyTimes="0;0.33;0.66;1" values="#55f335;#27ae19;#446f3f;#14a651" begin="0s"></animate>
</path><path d="M44.6,20.6c2.6,4.4,7,7.1,11.7,7.7c1.9-4.4,1.7-9.5-0.8-14c-2.6-4.4-7-7.1-11.7-7.7C41.9,11,42,16.2,44.6,20.6z" fill="#27ae19" transform="rotate(330 50 50)">
  <animate attributeName="fill" repeatCount="indefinite" dur="0.6097560975609756s" keyTimes="0;0.33;0.66;1" values="#27ae19;#446f3f;#14a651;#55f335" begin="0s"></animate>
</path></g></g>
</svg>
